Coordinates
version=1
nRows=9
nColumns=36
inDegrees=yes

Units are S.I. units (second, meters, Newtons, ...)
If the header above contains a line with 'inDegrees', this indicates whether rotational values are in degrees (yes) or radians (no).

endheader
time	pelvis_tilt	pelvis_list	pelvis_rotation	pelvis_tx	pelvis_ty	pelvis_tz	hip_flexion_r	hip_adduction_r	hip_rotation_r	knee_angle_r	knee_angle_r_beta	ankle_angle_r	subtalar_angle_r	mtp_angle_r	hip_flexion_l	hip_adduction_l	hip_rotation_l	knee_angle_l	knee_angle_l_beta	ankle_angle_l	subtalar_angle_l	mtp_angle_l	lumbar_extension	lumbar_bending	lumbar_rotation	arm_flex_r	arm_add_r	arm_rot_r	elbow_flex_r	pro_sup_r	arm_flex_l	arm_add_l	arm_rot_l	elbow_flex_l	pro_sup_l
      0.98000000	      1.72972720	      1.14785632	      1.70654436	      1.10454065	      0.94875450	     -0.24862860	     22.71721474	     -1.06465926	     -0.39876671	      9.47725669	      0.16540933	     -0.03114423	    -12.52658241	     -7.27356521	    -14.77199872	      5.52409437	      4.71419517	      1.89233947	      0.03302755	     13.76171538	     -2.61418142	     -7.27356521	     -7.56329841	     -2.03804074	     -7.53165595	    -12.87545005	     -2.04475175	    -19.57041817	     25.99648110	    112.14642068	     21.48282301	     -9.78583919	      7.91584798	     46.84990472	    109.13969332
      0.99000000	      1.63558170	      1.34472359	      2.01959288	      1.11695852	      0.94620537	     -0.24847804	     22.50992317	     -1.20733045	     -0.38442592	      6.82951897	      0.11919759	      0.08076919	    -11.34954851	     -7.27665242	    -15.57572415	      5.57312842	      4.85809879	      1.85254355	      0.03233298	     14.17416277	     -2.35273558	     -7.27665242	     -7.51189763	     -2.31480683	     -7.84693519	    -13.31357422	     -1.95230301	    -19.75141129	     25.90557275	    112.09564240	     22.28523337	     -9.84169068	      8.11468178	     47.64923647	    109.14904657
      1.00000000	      1.78426376	      1.44649535	      2.31441653	      1.12960785	      0.94395195	     -0.24828132	     22.11803424	     -1.25492740	     -0.97118956	      4.71525949	      0.08229680	      0.83037471	     -9.38278335	     -7.29020517	    -16.62157979	      5.47944046	      4.44280211	      1.84161252	      0.03214220	     14.93535652	     -1.08050665	     -7.29020517	     -7.77796806	     -2.44788806	     -8.20021967	    -13.68077421	     -1.82102069	    -20.37954325	     26.05012648	    112.25791878	     22.93950402	     -9.92704114	      8.25637265	     48.69399822	    109.21562027
      1.01000000	      1.74733852	      1.57304771	      2.60221730	      1.14221146	      0.94143214	     -0.24801729	     21.95122332	     -1.28597800	     -1.16603264	      2.99969516	      0.05235456	      1.00316350	     -8.63825292	     -7.29248643	    -17.38372585	      5.43817893	      4.50690628	      2.00012227	      0.03490872	     15.19332058	     -0.89266707	     -7.29248643	     -7.79823345	     -2.64001726	     -8.40390877	    -14.03921824	     -1.75249216	    -20.44926858	     25.92549549	    112.19887469	     23.60312592	     -9.85191034	      8.33162922	     49.41652495	    109.24153789
      1.02000000	      1.91650428	      1.60183633	      2.82824312	      1.15505251	      0.93921576	     -0.24768617	     21.63591275	     -1.18190680	     -1.61459546	      1.84727566	      0.03224104	      1.31226438	     -7.80365370	     -7.29524701	    -18.38541203	      5.28172556	      4.35686719	      2.13554848	      0.03727235	     15.52552446	     -0.54502116	     -7.29524701	     -8.05387608	     -2.67273193	     -8.63298523	    -14.29539650	     -1.72659461	    -20.54909235	     25.86148922	    112.16196960	     24.13983263	     -9.83517897	      8.33589856	     50.26530236	    109.29909637
      1.03000000	      1.84781093	      1.69644566	      2.96577991	      1.16800950	      0.93669160	     -0.24719231	     21.73908551	     -1.10228795	     -2.03804112	      1.38002350	      0.02408595	      1.53684051	     -7.66076464	     -7.29601197	    -19.06279828	      5.23764932	      4.19588338	      2.36595980	      0.04129379	     15.61345983	     -0.46916334	     -7.29601197	     -7.97753080	     -2.81953191	     -8.73837111	    -14.58669190	     -1.69947117	    -20.58846810	     25.74982043	    112.16735466	     24.60373916	     -9.72178139	      8.27838688	     50.75981605	    109.34965869
      1.04000000	      2.25521172	      1.46374760	      3.11888339	      1.18134977	      0.93498231	     -0.24672207	     21.25779478	     -0.68344970	     -3.11552667	      1.23426389	      0.02154197	      2.17324758	     -6.19902401	     -7.30130900	    -20.15515795	      4.77421784	      3.54528048	      2.82819859	      0.04936138	     16.16358006	      0.50893111	     -7.30130900	     -8.50947620	     -2.48907171	     -9.06229094	    -14.66972951	     -1.78713757	    -20.78428975	     25.81366864	    112.23344315	     24.63974486	     -9.71600859	      7.79155109	     52.13949164	    109.53245306
      1.05000000	      2.25760899	      1.36050829	      3.19779887	      1.19474600	      0.93280869	     -0.24610499	     21.19588454	     -0.36090864	     -3.41554484	      1.36078919	      0.02375025	      2.18641271	     -6.14398468	     -7.30304148	    -20.72388617	      4.51244677	      3.31245344	      3.45586237	      0.06031618	     16.17538548	      0.63598132	     -7.30304148	     -8.47930109	     -2.36551340	     -9.02290417	    -14.87561733	     -1.84286115	    -20.82194772	     25.66214682	    112.24944474	     24.85683687	     -9.47548248	      7.59343827	     52.68610623	    109.59709331
      1.06000000	      2.35003731	      1.07565614	      3.17580663	      1.20849658	      0.93093541	     -0.24523642	     20.98350495	      0.21300892	     -3.60689966	      1.68033765	      0.02932742	      1.54505471	     -6.45658045	     -7.31257871	    -21.26618607	      4.03896531	      2.40217485	      4.31048093	      0.07523208	     16.60283752	      1.72290718	     -7.31257871	     -8.54384246	     -2.00527354	     -9.29933260	    -14.83751338	     -2.00840259	    -20.77730066	     25.50613660	    112.36281066	     24.46252279	     -9.38158297	      6.55020175	     53.90806290	    109.80055539
